<svg width="49" height="49" viewBox="0 0 49 49" fill="none" xmlns="http://www.w3.org/2000/svg">
<path d="M44.7391 16.5109V13.3152H41.5435V10.1196H38.3479V6.92393H35.1521V3.72831H31.9565V0.532593H25.5652V3.72831H22.3696V6.92393H19.1739V10.1196H15.9783V13.3152H12.7826V16.5109H9.58697V19.7065H6.39134V22.9021H3.19562V26.0979H0V32.4891H3.19562V35.6848H6.39134V38.8805H9.58697V42.0761H12.7826V45.2717H15.9783V48.4674H22.3696V45.2717H25.5652V42.0761H28.7609V38.8805H31.9565V35.6848H35.1521V32.4891H38.3479V29.2935H41.5435V26.0979H44.7391V22.9021H47.9348V16.5109H44.7391Z" fill="#2488FF"/>
<path d="M47.9348 16.5109H44.7391V13.3152H41.5435V10.1196H38.3479V6.92393H35.1521V3.72831H31.9565V0.532593H25.5652V3.72831H22.3696V6.92393H19.1739V10.1196H15.9783V13.3152H12.7826V16.5109H15.9783V19.7065H19.1739V22.9021H22.3696V26.0979H25.5652V29.2935H28.7609V32.4891H31.9565V35.6848H35.1521V32.4891H38.3479V29.2935H41.5435V26.0979H44.7391V22.9021H47.9348V16.5109Z" fill="#FFA733"/>
<path d="M35.1521 6.92393V3.72831H31.9565V0.532593H25.5652V3.72831H22.3696V6.92393H19.1739V10.1196H15.9783V13.3152H12.7826V16.5109H15.9783V19.7065H19.1739V22.9021H22.3696V26.0979H25.5652V19.7065H28.7609V16.5109H31.9565V13.3152H35.1521V10.1196H38.3479V6.92393H35.1521Z" fill="#FFCD00"/>
<path d="M25.5652 22.9021H19.1738V26.0978H25.5652V22.9021Z" fill="#005ECE"/>
<path d="M31.9565 32.4891V29.2935H28.7609V26.0979H25.5652V22.9022H22.3696V19.7066H19.1739V16.511H15.9783V13.3152H12.7827V16.5108H9.58706V19.7064H6.39134V22.902H3.19562V26.0977H0V29.2933V32.4889H3.19562V35.6845H6.39125V38.8802H9.58687V42.0758H12.7825V45.2714H15.9781V48.467H22.3695V45.2714H25.5651V42.0758H28.7607V38.8802H31.9563V35.6848H35.1519V32.4892H31.9565V32.4891ZM12.7826 19.7065H15.9782V22.9021H12.7826V19.7065ZM6.39134 26.0979H9.58696H19.1739H22.3696V29.2935H6.39134V26.0979ZM22.3696 42.0761H15.9782V38.8804H22.3696V42.0761ZM25.5652 35.6848H12.7826H9.58696V32.4892H25.5652H28.7608V35.6848H25.5652Z" fill="#005ECE"/>
<path d="M22.3696 45.2717H15.9783V48.4673H22.3696V45.2717Z" fill="black"/>
<path d="M25.5651 42.0761H22.3695V45.2717H25.5651V42.0761Z" fill="black"/>
<path d="M28.7607 38.8804H25.5651V42.0761H28.7607V38.8804Z" fill="black"/>
<path d="M31.9565 35.6848H28.7609V38.8805H31.9565V35.6848Z" fill="black"/>
<path d="M35.152 32.4891H31.9564V35.6847H35.152V32.4891Z" fill="black"/>
<path d="M38.3477 29.2935H35.1521V32.4891H38.3477V29.2935Z" fill="black"/>
<path d="M41.5435 26.0979H38.3479V29.2935H41.5435V26.0979Z" fill="black"/>
<path d="M47.9348 16.5109H44.7391V22.9022H47.9348V16.5109Z" fill="black"/>
<path d="M44.7391 22.9021H41.5435V26.0978H44.7391V22.9021Z" fill="black"/>
<path d="M3.19562 26.0979H0V32.4892H3.19562V26.0979Z" fill="black"/>
<path d="M6.3913 22.9021H3.19568V26.0978H6.3913V22.9021Z" fill="black"/>
<path d="M9.58698 19.7065H6.39136V22.9021H9.58698V19.7065Z" fill="black"/>
<path d="M12.7825 16.5109H9.58691V19.7065H12.7825V16.5109Z" fill="black"/>
<path d="M15.9782 13.3152H12.7826V16.5108H15.9782V13.3152Z" fill="black"/>
<path d="M19.1739 10.1196H15.9783V13.3152H19.1739V10.1196Z" fill="black"/>
<path d="M22.3695 6.92393H19.1738V10.1196H22.3695V6.92393Z" fill="black"/>
<path d="M31.9564 0.532593H25.5651V3.72822H31.9564V0.532593Z" fill="black"/>
<path d="M25.5651 3.7283H22.3695V6.92392H25.5651V3.7283Z" fill="black"/>
<path d="M6.3913 32.4891H3.19568V35.6847H6.3913V32.4891Z" fill="black"/>
<path d="M9.58698 35.6848H6.39136V38.8805H9.58698V35.6848Z" fill="black"/>
<path d="M12.7825 38.8804H9.58691V42.0761H12.7825V38.8804Z" fill="black"/>
<path d="M15.9782 42.0761H12.7826V45.2717H15.9782V42.0761Z" fill="black"/>
<path d="M35.152 3.7283H31.9564V6.92392H35.152V3.7283Z" fill="black"/>
<path d="M38.3477 6.92393H35.1521V10.1196H38.3477V6.92393Z" fill="black"/>
<path d="M41.5435 10.1196H38.3479V13.3152H41.5435V10.1196Z" fill="black"/>
<path d="M44.7391 13.3152H41.5435V16.5108H44.7391V13.3152Z" fill="black"/>
<path d="M19.1739 16.5109H15.9783V19.7065H19.1739V16.5109Z" fill="black"/>
<path d="M22.3695 19.7065H19.1738V22.9021H22.3695V19.7065Z" fill="black"/>
<path d="M25.5651 22.9021H22.3695V26.0978H25.5651V22.9021Z" fill="black"/>
<path d="M28.7607 26.0979H25.5651V29.2935H28.7607V26.0979Z" fill="black"/>
<path d="M31.9565 29.2935H28.7609V32.4891H31.9565V29.2935Z" fill="black"/>
</svg>
